Description

Poster: http://cdn.piczend.com/image/uc5hnhm0uqcrn6uosg27sp9r7.jpeg
Release date: 2012
Genre: Adventure, Fantasy
Plot: A younger and more reluctant Hobbit, Bilbo Baggins, sets out on an 'unexpected journey' to the Lonely Mountain with a spirited group of Dwarves to reclaim their stolen mountain home from a dragon named Smaug.
--------------------------------

Runtime: 2 h 49 min
Rating: 8.3/10
Votes: 215,410
Writer(s)/Director(s): Fran Walsh, Philippa Boyens/Peter Jackson
Actors: Martin Freeman, Ian McKellen, Richard Armitage, Andy Serkis
Trailer: http://www.imdb.com/video/imdb/vi1016047385/

Screenshots:
 
http://cdn.piczend.com/image/sweehkp6zjmvm47ds6gwajgaa.jpeg
 
http://cdn.piczend.com/image/fiqrf2jcxnji3fxcsjomhsvez.jpeg
 
http://cdn.piczend.com/image/he8oeykdfbj7blvpk3iqrkybz.jpeg
 
http://cdn.piczend.com/image/biiwmxdrwiluspzuyxv9jajc8.jpeg


Mediainfo:
General
Complete name : 	The Hobbit: An Unexpected Journey (2012) BRRip 536p [Zend]/The Hobbit: An Unexpected Journey (2012) BRRip 536p [Zend].mp4
Format : 	MPEG-4
Format profile : 	Base Media
Codec ID : 	isom
File size : 	1.88 GiB
Duration : 	2h 49mn
Overall bit rate mode : 	Variable
Overall bit rate : 	1 590 Kbps
Encoded date : 	UTC 2013-02-28 08:12:58
Tagged date : 	UTC 2013-02-28 08:12:58
Writing application : 	Lavf53.21.1

Video
ID : 	1
Format : 	AVC
Format/Info : 	Advanced Video Codec
Format profile : 	Main@L3.1
Format settings, CABAC : 	Yes
Format settings, ReFrames : 	3 frames
Codec ID : 	avc1
Codec ID/Info : 	Advanced Video Coding
Duration : 	2h 49mn
Bit rate : 	1 500 Kbps
Width : 	1 280 pixels
Height : 	536 pixels
Display aspect ratio : 	2.40:1
Frame rate mode : 	Constant
Frame rate : 	23.976 fps
Color space : 	YUV
Chroma subsampling : 	4:2:0
Bit depth : 	8 bits
Scan type : 	Progressive
Bits/(Pixel*Frame) : 	0.091
Stream size : 	1.76 GiB (94%)
Writing library : 	x264 core 123 r2189 35cf912
Encoding settings : 	cabac=1 / ref=3 / deblock=1:0:0 / analyse=0x1:0x111 / me=hex / subme=7 / psy=1 / psy_rd=1.00:0.00 / mixed_ref=0 / me_range=16 / chroma_me=1 / trellis=1 / 8x8dct=0 / cqm=0 / deadzone=21,11 / fast_pskip=1 / chroma_qp_offset=-2 / threads=6 / sliced_threads=0 / nr=0 / decimate=1 / interlaced=0 / bluray_compat=0 / constrained_intra=0 / bframes=3 / b_pyramid=0 / b_adapt=1 / b_bias=0 / direct=1 / weightb=0 / open_gop=1 / weightp=2 / keyint=250 / keyint_min=23 / scenecut=40 / intra_refresh=0 / rc_lookahead=40 / rc=abr / mbtree=1 / bitrate=1500 / ratetol=1.0 / qcomp=0.60 / qpmin=0 / qpmax=69 / qpstep=4 / ip_ratio=1.25 / aq=1:1.00
Encoded date : 	UTC 2013-02-28 08:12:58
Tagged date : 	UTC 2013-02-28 08:12:58

Audio
ID : 	2
Format : 	AAC
Format/Info : 	Advanced Audio Codec
Format profile : 	LC
Codec ID : 	40
Duration : 	2h 49mn
Bit rate mode : 	Variable
Bit rate : 	96.0 Kbps
Channel(s) : 	2 channels
Channel positions : 	Front: L R
Sampling rate : 	48.0 KHz
Compression mode : 	Lossy
Delay relative to video : 	42ms
Stream size : 	116 MiB (6%)
Language : 	English
Encoded date : 	UTC 2013-02-28 08:12:58
Tagged date : 	UTC 2013-02-28 08:12:58
